<mxfile host="app.diagrams.net" modified="2022-04-10T06:50:38.278Z" agent="5.0 (Windows)" etag="cWCEqXFRsLLbH-UY7x70" version="17.4.2" type="github">
  <diagram id="vm27vgAdccVjIgrcJmN1" name="Page-1">
    <mxGraphModel dx="1422" dy="724" grid="1" gridSize="10" guides="1" tooltips="1" connect="1" arrows="1" fold="1" page="1" pageScale="1" pageWidth="827" pageHeight="1169" math="0" shadow="0">
      <root>
        <mxCell id="0" />
        <mxCell id="1" parent="0" />
        <mxCell id="CkHqLfm3sLkxxMEbRB-w-15" value="" style="shape=flexArrow;endArrow=classic;html=1;rounded=0;exitX=0.75;exitY=0;exitDx=0;exitDy=0;" edge="1" parent="1" source="CkHqLfm3sLkxxMEbRB-w-5">
          <mxGeometry width="50" height="50" relative="1" as="geometry">
            <mxPoint x="390" y="400" as="sourcePoint" />
            <mxPoint x="600" y="80" as="targetPoint" />
          </mxGeometry>
        </mxCell>
        <mxCell id="CkHqLfm3sLkxxMEbRB-w-13" value="" style="shape=flexArrow;endArrow=classic;html=1;rounded=0;entryX=0.25;entryY=0;entryDx=0;entryDy=0;" edge="1" parent="1" target="CkHqLfm3sLkxxMEbRB-w-5">
          <mxGeometry width="50" height="50" relative="1" as="geometry">
            <mxPoint x="70" y="80" as="sourcePoint" />
            <mxPoint x="440" y="350" as="targetPoint" />
          </mxGeometry>
        </mxCell>
        <mxCell id="CkHqLfm3sLkxxMEbRB-w-1" value="Analyse des besoins et étude de la faisabilité" style="rounded=0;whiteSpace=wrap;html=1;" vertex="1" parent="1">
          <mxGeometry x="40" y="110" width="170" height="50" as="geometry" />
        </mxCell>
        <mxCell id="CkHqLfm3sLkxxMEbRB-w-2" value="Spécifications" style="rounded=0;whiteSpace=wrap;html=1;" vertex="1" parent="1">
          <mxGeometry x="80" y="200" width="120" height="40" as="geometry" />
        </mxCell>
        <mxCell id="CkHqLfm3sLkxxMEbRB-w-3" value="Conception générale" style="rounded=0;whiteSpace=wrap;html=1;" vertex="1" parent="1">
          <mxGeometry x="120" y="280" width="140" height="40" as="geometry" />
        </mxCell>
        <mxCell id="CkHqLfm3sLkxxMEbRB-w-4" value="Conception détaillée" style="rounded=0;whiteSpace=wrap;html=1;" vertex="1" parent="1">
          <mxGeometry x="160" y="360" width="130" height="40" as="geometry" />
        </mxCell>
        <mxCell id="CkHqLfm3sLkxxMEbRB-w-5" value="Réalisation" style="rounded=0;whiteSpace=wrap;html=1;" vertex="1" parent="1">
          <mxGeometry x="270" y="440" width="130" height="40" as="geometry" />
        </mxCell>
        <mxCell id="CkHqLfm3sLkxxMEbRB-w-7" value="Tests unitaires" style="rounded=0;whiteSpace=wrap;html=1;" vertex="1" parent="1">
          <mxGeometry x="360" y="360" width="130" height="40" as="geometry" />
        </mxCell>
        <mxCell id="CkHqLfm3sLkxxMEbRB-w-8" value="Tests intégration" style="rounded=0;whiteSpace=wrap;html=1;" vertex="1" parent="1">
          <mxGeometry x="400" y="280" width="140" height="40" as="geometry" />
        </mxCell>
        <mxCell id="CkHqLfm3sLkxxMEbRB-w-9" value="Validation" style="rounded=0;whiteSpace=wrap;html=1;" vertex="1" parent="1">
          <mxGeometry x="440" y="200" width="140" height="40" as="geometry" />
        </mxCell>
        <mxCell id="CkHqLfm3sLkxxMEbRB-w-12" value="Recette" style="rounded=0;whiteSpace=wrap;html=1;" vertex="1" parent="1">
          <mxGeometry x="480" y="120" width="140" height="40" as="geometry" />
        </mxCell>
      </root>
    </mxGraphModel>
  </diagram>
</mxfile>
